Plot: 

London 1846. Singer Gloria Vane has a resounding success at the Adelphi Theater. While she throws a brilliant party, her lover, Sir Albert Finsbury, an army commanding officer, prepares to leave England for Australia, leading one of Her Majesty Queen Victoria's regiments. But Finsbury is also a compulsive gambler and, being unable to repay his debts, he commits a fraud that could cost him his career. Out of love for Albert, Gloria claims responsibility for his crime and his sentenced to penal labor in a camp in Australia, Paramatta. She is "saved" by good-natured farmer Henry Hoyer who chooses her in a wedding market. But Gloria is not made for farming and soon realizes that she can't stand her new life... 

Language: German
Subtitles: English


Cast:

Zarah Leander 	... 	Gloria Vane
Willy Birgel  	... 	Sir Albert Finsbury
Edwin Jürgensen ... 	Gouverneur Jones
Carola Höhn 	... 	Mary Jones
Viktor Staal 	... 	Henry Hoyer
Erich Ziegel 	... 	Dr. Magnus Hoyer
Hilde von Stolz	... 	Fanny Hoyer 


General

Format                                   : AVI
Format/Info                              : Audio Video Interleave
File size                                : 1.05 GiB
Duration                                 : 1h 37mn
Overall bit rate                         : 1 534 Kbps

Video
ID                                       : 0
Format                                   : MPEG-4 Visual
Format profile                           : Advanced Simple@L5
Format settings, BVOP                    : 1
Format settings, QPel                    : No
Format settings, GMC                     : No warppoints
Format settings, Matrix                  : Default (H.263)
Muxing mode                              : Packed bitstream
Codec ID                                 : XVID
Codec ID/Hint                            : XviD
Duration                                 : 1h 37mn
Bit rate                                 : 1 301 Kbps
Width                                    : 720 pixels
Height                                   : 512 pixels
Display aspect ratio                     : 1.406
Frame rate                               : 25.000 fps
Scan type                                : Progressive
Compression mode                         : Lossy
Bits/(Pixel*Frame)                       : 0.141
Stream size                              : 910 MiB (85%)
                   

Audio
ID                                       : 1
Format                                   : AC-3
Format/Info                              : Audio Coding 3
Mode extension                           : CM (complete main)
Format settings, Endianness              : Big
Codec ID                                 : 2000
Duration                                 : 1h 37mn
Bit rate mode                            : Constant
Bit rate                                 : 224 Kbps
Channel(s)                               : 6 channels
Channel positions                        : Front: L C R, Side: L R, LFE
Sampling rate                            : 48.0 KHz
Bit depth                                : 16 bits
Compression mode                         : Lossy
Stream size                              : 157 MiB (15%)
Alignment                                : Split accross interleaves
Interleave, duration                     : 40 ms (1.00 video frame)
Interleave, preload duration             : 500 ms

